<svg width="26" height="26" viewBox="0 0 26 26" fill="none" xmlns="http://www.w3.org/2000/svg">
<path d="M12.8 0C16.3337 0 19.5339 1.43289 21.8511 3.74893C24.1671 6.06496 25.6 9.26523 25.6 12.8C25.6 16.3348 24.1671 19.5339 21.8511 21.8511C21.0485 22.6536 20.1389 23.3502 19.1465 23.9187L19.1431 23.922C18.5018 24.2885 17.8251 24.601 17.1197 24.8526V20.7427V11.897L14.0574 16.7134L12.9115 18.515L11.7678 16.7134L8.67243 11.8396L8.62606 20.6511C7.71533 20.1665 6.80569 19.5019 5.89496 18.5724L6.01859 7.25057C6.53744 6.62134 7.13466 6.04288 7.87539 5.56267L12.9115 13.459L17.941 5.48098C18.6044 5.86846 19.2425 6.40276 19.8309 7.23512V20.1897C19.8916 20.1312 19.9523 20.0727 20.0119 20.013C21.8577 18.1673 22.9992 15.6172 22.9992 12.8C22.9992 9.98279 21.8577 7.43272 20.0119 5.58696C18.1662 3.7412 15.6161 2.59974 12.7989 2.59974C9.98168 2.59974 7.43162 3.7412 5.58586 5.58696C3.74009 7.43272 2.59864 9.98279 2.59864 12.8C2.59864 13.8443 2.75539 14.8522 3.04683 15.8005C3.45307 17.123 3.96309 17.9785 4.84292 19.0957C5.36176 19.7547 5.96009 20.3453 6.61913 20.8553C8.37878 22.2154 10.58 23.0036 12.9214 22.987L12.9159 21.3929L16.7134 24.9906L16.7178 24.9928H16.7167L16.7178 24.9951H16.7112C16.1802 25.1617 15.6338 25.2953 15.0719 25.3936L15.0774 25.398C14.3378 25.5305 13.5761 25.6 12.7989 25.6C9.26524 25.6 6.06496 24.1671 3.74782 21.8511C1.43289 19.5339 0 16.3337 0 12.8C0 9.26634 1.43289 6.06606 3.74893 3.74893C6.06606 1.43289 9.26523 0 12.8 0Z" fill="#CC4400"/>
</svg>
