<svg width="122" height="26" viewBox="0 0 122 26" fill="none" xmlns="http://www.w3.org/2000/svg">
<path d="M12.8 0.199951C16.3337 0.199951 19.5339 1.63284 21.8511 3.94888C24.1671 6.26491 25.6 9.46519 25.6 13C25.6 16.5347 24.1671 19.7339 21.8511 22.051C21.0485 22.8536 20.1389 23.5502 19.1465 24.1187L19.1431 24.122C18.5018 24.4885 17.8251 24.8009 17.1197 25.0526V20.9427V12.0969L14.0574 16.9134L12.9115 18.715L11.7678 16.9134L8.67243 12.0395L8.62606 20.8511C7.71533 20.3664 6.80569 19.7019 5.89496 18.7724L6.01859 7.45052C6.53744 6.82129 7.13466 6.24283 7.87539 5.76262L12.9115 13.659L17.941 5.68093C18.6044 6.06841 19.2425 6.60271 19.8309 7.43507V20.3896C19.8916 20.3311 19.9523 20.2726 20.0119 20.213C21.8577 18.3672 22.9992 15.8172 22.9992 13C22.9992 10.1827 21.8577 7.63267 20.0119 5.78691C18.1662 3.94115 15.6161 2.79969 12.7989 2.79969C9.98168 2.79969 7.43162 3.94115 5.58586 5.78691C3.74009 7.63267 2.59864 10.1827 2.59864 13C2.59864 14.0443 2.75539 15.0521 3.04683 16.0004C3.45307 17.3229 3.96309 18.1785 4.84292 19.2956C5.36176 19.9547 5.96009 20.5453 6.61913 21.0553C8.37878 22.4153 10.58 23.2035 12.9214 23.187L12.9159 21.5929L16.7134 25.1906L16.7178 25.1928H16.7167L16.7178 25.195H16.7112C16.1802 25.3617 15.6338 25.4953 15.0719 25.5935L15.0774 25.5979C14.3378 25.7304 13.5761 25.8 12.7989 25.8C9.26524 25.8 6.06496 24.3671 3.74782 22.051C1.43289 19.7339 0 16.5336 0 13C0 9.46629 1.43289 6.26601 3.74893 3.94888C6.06606 1.63284 9.26523 0.199951 12.8 0.199951Z" fill="#CC4400"/>
<path d="M28.8 13.2394C28.8 9.88436 31.2665 7.2959 34.7491 7.2959C38.2317 7.2959 40.6982 9.88436 40.6982 13.2394C40.6982 16.5944 38.2317 19.1829 34.7491 19.1829C31.2665 19.1829 28.8 16.5944 28.8 13.2394ZM39.0542 13.2394C39.0542 10.7627 37.3613 8.73404 34.7491 8.73404C32.1369 8.73404 30.4441 10.7627 30.4441 13.2394C30.4441 15.7161 32.1369 17.7447 34.7491 17.7447C37.3613 17.7447 39.0542 15.7161 39.0542 13.2394Z" fill="#CC4400"/>
<path d="M41.5151 11.3225H42.9664V12.4886H42.9984C43.3697 11.6895 44.3369 11.1306 45.2881 11.1306C45.5137 11.1306 45.7393 11.1623 45.933 11.2266L45.8681 12.7765C45.6265 12.7122 45.384 12.6647 45.1584 12.6647C43.74 12.6647 42.9655 13.4313 42.9655 15.0929V18.8951H41.5142V11.3225H41.5151Z" fill="#CC4400"/>
<path d="M53.8099 18.8951H52.3586V17.809H52.3266C51.7626 18.624 50.6986 19.0869 49.6665 19.0869C47.2968 19.0869 45.7806 17.3452 45.7806 15.1088C45.7806 12.8724 47.3119 11.1306 49.6665 11.1306C50.7625 11.1306 51.8106 11.6261 52.3266 12.4085H52.3586V6.81714H53.8099V18.8951ZM52.3586 15.1088C52.3586 13.5747 51.3913 12.4728 49.8432 12.4728C48.2951 12.4728 47.3278 13.5747 47.3278 15.1088C47.3278 16.6429 48.2951 17.7447 49.8432 17.7447C51.3913 17.7447 52.3586 16.6419 52.3586 15.1088Z" fill="#CC4400"/>
<path d="M56.0602 15.636C56.0602 16.9623 57.3019 17.8407 58.6395 17.8407C59.5259 17.8407 60.1716 17.3936 60.7356 16.7062L61.8316 17.537C61.0251 18.5756 59.9132 19.0869 58.4459 19.0869C56.0273 19.0869 54.5121 17.3619 54.5121 15.1088C54.5121 12.8556 56.173 11.1306 58.4618 11.1306C61.1539 11.1306 62.186 13.176 62.186 15.1246V15.636H56.0593H56.0602ZM60.6388 14.4856C60.6069 13.2236 59.8972 12.2809 58.4299 12.2809C56.9626 12.2809 56.0602 13.4788 56.0602 14.4856H60.6388Z" fill="#CC4400"/>
<path d="M62.89 11.3225H64.3413V12.4886H64.3733C64.7436 11.6895 65.7118 11.1306 66.663 11.1306C66.8886 11.1306 67.1142 11.1623 67.3078 11.2266L67.243 12.7765C67.0014 12.7122 66.7589 12.6647 66.5333 12.6647C65.1149 12.6647 64.3404 13.4313 64.3404 15.0929V18.8951H62.889V11.3225H62.89Z" fill="#CC4400"/>
<path d="M67.8163 11.3225H69.1708V12.5045H69.2028C69.3475 12.0574 70.2828 11.1306 71.6533 11.1306C72.7822 11.1306 73.5558 11.6103 74.0389 12.5362C74.539 11.6094 75.5382 11.1306 76.4575 11.1306C78.8112 11.1306 79.3592 12.7923 79.3592 14.4856V18.8951H77.9079V14.6775C77.9079 13.5272 77.6663 12.4728 76.2629 12.4728C74.8595 12.4728 74.3125 13.4154 74.3125 14.7576V18.896H72.8612V14.9337C72.8612 13.4955 72.6515 12.4737 71.2491 12.4737C70.201 12.4737 69.2658 13.2562 69.2658 14.9663V18.896H67.8145V11.3234L67.8163 11.3225Z" fill="#CC4400"/>
<path d="M81.6114 15.636C81.6114 16.9623 82.8531 17.8407 84.1906 17.8407C85.077 17.8407 85.7219 17.3936 86.2868 16.7062L87.3828 17.537C86.5763 18.5756 85.4643 19.0869 83.997 19.0869C81.5785 19.0869 80.0632 17.3619 80.0632 15.1088C80.0632 12.8556 81.7242 11.1306 84.013 11.1306C86.7051 11.1306 87.7372 13.176 87.7372 15.1246V15.636H81.6104H81.6114ZM86.19 14.4856C86.158 13.2236 85.4483 12.2809 83.981 12.2809C82.5137 12.2809 81.6114 13.4788 81.6114 14.4856H86.19Z" fill="#CC4400"/>
<path d="M88.4403 11.3225H89.8916V12.4886H89.9236C90.2949 11.6895 91.2621 11.1306 92.4389 11.1306C93.9222 11.1306 95.2119 12.009 95.2119 14.0227V18.8951H93.7605V14.4214C93.7605 13 92.9381 12.4728 92.0197 12.4728C90.81 12.4728 89.8916 13.2394 89.8916 14.997V18.8951H88.4403V11.3225Z" fill="#CC4400"/>
<path d="M100.462 12.5689H98.3814V16.004C98.3814 16.8507 98.3814 17.7458 99.4774 17.7458C99.8158 17.7458 100.219 17.6983 100.51 17.5222V18.8328C100.171 19.0246 99.4934 19.088 99.2039 19.088C96.963 19.088 96.9311 17.73 96.9311 16.5154V12.5689H95.2542V11.3226H96.9311V9.198H98.3824V11.3226H100.463V12.5689H100.462Z" fill="#CC4400"/>
<path d="M108.065 18.8951H106.614V17.7289H106.582C106.211 18.5281 105.243 19.087 104.066 19.087C102.583 19.087 101.293 18.2086 101.293 16.1949V11.3225H102.745V15.7962C102.745 17.2176 103.567 17.7457 104.487 17.7457C105.695 17.7457 106.615 16.9791 106.615 15.2215V11.3234H108.066V18.896L108.065 18.8951Z" fill="#CC4400"/>
<path d="M109.219 11.3225H110.574V12.5045H110.606C110.751 12.0574 111.686 11.1306 113.056 11.1306C114.185 11.1306 114.959 11.6103 115.442 12.5362C115.942 11.6094 116.941 11.1306 117.86 11.1306C120.214 11.1306 120.762 12.7923 120.762 14.4856V18.8951H119.311V14.6775C119.311 13.5272 119.069 12.4728 117.666 12.4728C116.262 12.4728 115.715 13.4154 115.715 14.7576V18.896H114.264V14.9337C114.264 13.4955 114.055 12.4737 112.652 12.4737C111.604 12.4737 110.669 13.2562 110.669 14.9663V18.896H109.217V11.3234L109.219 11.3225Z" fill="#CC4400"/>
</svg>
