<svg width="28" height="28" viewBox="0 0 28 28" fill="none" xmlns="http://www.w3.org/2000/svg">
<rect width="28" height="28" rx="4" fill="#BA004E"/>
<path d="M13.6626 11.7091C14.1399 10.831 14.5408 10.1055 14.5408 9.0746C14.5408 8.31097 14.3308 8.08187 13.8917 7.71915C13.4144 7.31824 13.109 7.31824 12.5553 7.31824C10.2071 7.31824 8.29805 8.57824 6.40805 9.78096C5.89259 10.1055 5.73987 10.3155 5.73987 10.5828C5.73987 10.6401 5.79714 10.7164 5.8735 10.7928C5.98805 10.9073 5.96896 11.041 6.31259 11.251C6.46532 11.3464 6.5035 11.3464 6.56078 11.3464C6.67532 11.3464 6.67532 11.3655 6.67532 11.4419C6.5035 12.1482 6.38896 12.3201 6.04532 13.3701C6.02623 13.4273 6.00714 13.4464 5.96896 13.4464C5.64441 13.4464 5.43441 13.6564 5.35805 13.6755C5.28169 13.6946 5.2435 13.7328 5.2435 13.8855C5.2435 14.0955 5.4535 14.2482 5.60623 14.3628C5.68259 14.4201 5.68259 14.4391 5.68259 14.5155C5.60623 15.0691 4.97623 16.4628 4.97623 16.921C4.97623 17.0164 4.89987 17.1882 4.86169 17.2837C4.6135 17.9137 4.36532 19.1546 4.21259 19.7655C4.15532 19.9946 4.13623 20.0901 4.13623 20.1282C4.13623 20.1855 4.15532 20.2046 4.1935 20.2428C4.47987 20.5291 4.59441 20.3955 4.89987 20.701C4.95714 20.7582 5.05259 20.7582 5.14805 20.7582C5.30078 20.7582 5.4535 20.701 5.58714 20.6055C5.70168 20.5291 5.72078 20.491 5.72078 20.3955C5.72078 20.1091 6.31259 17.5319 6.88532 15.8137C6.96169 15.5846 6.98078 15.5655 7.03805 15.5655C7.09532 15.5655 7.1335 15.6037 7.19078 15.6419C7.53441 15.871 7.68714 16.1573 8.3935 16.1573C9.17623 16.1573 10.1308 15.7564 10.3217 15.6037C11.5817 14.611 12.8608 13.1982 13.6626 11.7091ZM12.918 8.92187C12.918 9.53278 12.3644 10.7928 12.0017 11.461C11.2953 12.7591 10.1499 14.0382 8.90896 14.8591C8.73714 14.9737 8.71805 14.9737 8.62259 14.9737C8.35532 14.9737 8.03078 14.7064 7.51532 14.2673C7.80168 12.8928 8.45078 11.461 8.94714 10.0864C9.82532 9.20824 10.9899 9.11278 12.0971 8.78824C12.288 8.73096 12.3644 8.73096 12.4408 8.73096C12.918 8.73096 12.918 8.80733 12.918 8.92187Z" fill="#FFD3D3"/>
<path d="M23.0216 11.7091C23.4989 10.831 23.8998 10.1055 23.8998 9.0746C23.8998 8.31097 23.6898 8.08187 23.2507 7.71915C22.7734 7.31824 22.468 7.31824 21.9143 7.31824C19.5662 7.31824 17.6571 8.57824 15.7671 9.78096C15.2516 10.1055 15.0989 10.3155 15.0989 10.5828C15.0989 10.6401 15.1562 10.7164 15.2325 10.7928C15.3471 10.9073 15.328 11.041 15.6716 11.251C15.8243 11.3464 15.8625 11.3464 15.9198 11.3464C16.0343 11.3464 16.0343 11.3655 16.0343 11.4419C15.8625 12.1482 15.748 12.3201 15.4043 13.3701C15.3853 13.4273 15.3662 13.4464 15.328 13.4464C15.0034 13.4464 14.7934 13.6564 14.7171 13.6755C14.6407 13.6946 14.6025 13.7328 14.6025 13.8855C14.6025 14.0955 14.8125 14.2482 14.9653 14.3628C15.0416 14.4201 15.0416 14.4391 15.0416 14.5155C14.9653 15.0691 14.3353 16.4628 14.3353 16.921C14.3353 17.0164 14.2589 17.1882 14.2207 17.2837C13.9725 17.9137 13.7243 19.1546 13.5716 19.7655C13.5143 19.9946 13.4952 20.0901 13.4952 20.1282C13.4952 20.1855 13.5143 20.2046 13.5525 20.2428C13.8389 20.5291 13.9534 20.3955 14.2589 20.701C14.3162 20.7582 14.4116 20.7582 14.5071 20.7582C14.6598 20.7582 14.8125 20.701 14.9462 20.6055C15.0607 20.5291 15.0798 20.491 15.0798 20.3955C15.0798 20.1091 15.6716 17.5319 16.2443 15.8137C16.3207 15.5846 16.3398 15.5655 16.3971 15.5655C16.4543 15.5655 16.4925 15.6037 16.5498 15.6419C16.8934 15.871 17.0462 16.1573 17.7525 16.1573C18.5353 16.1573 19.4898 15.7564 19.6807 15.6037C20.9407 14.611 22.2198 13.1982 23.0216 11.7091ZM22.2771 8.92187C22.2771 9.53278 21.7234 10.7928 21.3607 11.461C20.6543 12.7591 19.5089 14.0382 18.268 14.8591C18.0962 14.9737 18.0771 14.9737 17.9816 14.9737C17.7143 14.9737 17.3898 14.7064 16.8743 14.2673C17.1607 12.8928 17.8098 11.461 18.3062 10.0864C19.1843 9.20824 20.3489 9.11278 21.4562 8.78824C21.6471 8.73096 21.7234 8.73096 21.7998 8.73096C22.2771 8.73096 22.2771 8.80733 22.2771 8.92187Z" fill="#FFD3D3"/>
<path d="M22.5458 18.7346C22.5458 18.601 22.5267 18.4673 22.3931 18.2191C22.2404 17.9328 21.8204 17.6273 21.4004 17.6273C21.0758 17.6273 20.8849 17.6464 20.7704 17.7801C20.6749 17.8946 20.5986 18.0664 20.5795 18.2573C20.5604 18.4482 20.4649 18.6391 20.3313 18.7728C20.2549 18.8491 20.1786 19.021 20.1786 19.1546C20.1786 19.2501 20.2167 19.4219 20.3313 19.5937C20.6558 20.0901 21.0758 20.2619 21.2858 20.2619C21.5722 20.2619 21.7822 20.2619 21.9922 20.0901C22.164 19.9564 22.2786 19.8037 22.3931 19.4791C22.4504 19.3073 22.5458 18.8873 22.5458 18.7346Z" fill="#FFD3D3"/>
</svg>
